<?xml version="1.0" encoding="UTF-8" standalone="no"?><!DOCTYPE svg PUBLIC "-//W3C//DTD SVG 1.1//EN" "http://www.w3.org/Graphics/SVG/1.1/DTD/svg11.dtd"><svg width="100%" height="100%" viewBox="0 0 150 150" version="1.1" xmlns="http://www.w3.org/2000/svg" xmlns:xlink="http://www.w3.org/1999/xlink" xml:space="preserve" xmlns:serif="http://www.serif.com/" style="fill-rule:evenodd;clip-rule:evenodd;stroke-linecap:round;stroke-linejoin:round;stroke-miterlimit:1.5;"><path d="M49.955,30.111c0.801,-11.104 11.717,-19.913 25.045,-19.913c13.328,-0 24.244,8.809 25.045,19.913l0.048,-0l-0,45.08l-0.028,0c0.019,0.335 0.028,0.67 0.028,1.008c-0,11.715 -11.244,21.227 -25.093,21.227c-13.849,-0 -25.093,-9.512 -25.093,-21.227c0,-0.338 0.009,-0.673 0.028,-1.008l-0.028,0l0,-45.08l0.048,-0Z" style="fill:none;stroke:#000;stroke-width:10px;"/><path d="M77.218,107.617c17.749,-1.048 31.984,-14.585 33.188,-31.518c0.054,0.767 0.082,1.543 0.082,2.325c0,17.504 -13.91,31.928 -31.738,33.721l0,16.088l21.343,-0c2.346,-0 4.25,1.904 4.25,4.25c-0,2.345 -1.904,4.25 -4.25,4.25l-50.186,-0c-2.346,-0 -4.25,-1.905 -4.25,-4.25c0,-2.346 1.904,-4.25 4.25,-4.25l21.343,-0l0,-16.088c-17.828,-1.793 -31.738,-16.217 -31.738,-33.721c-0,-0.782 0.028,-1.558 0.082,-2.325c1.204,16.933 15.439,30.47 33.188,31.518c0.621,-0.457 1.388,-0.727 2.218,-0.727c0.83,-0 1.597,0.27 2.218,0.727Z" style="stroke:#000;stroke-width:7.5px;"/></svg>